<?xml version="1.0" encoding="UTF-8"?>
<svg xmlns="http://www.w3.org/2000/svg" viewBox="0 0 420 248" width="420" height="248" role="img" aria-label="Composição média de linguagens por repositório público de Pcamargoz: Java 61.1%, HTML 17.3%, TypeScript 11.8%, CSS 8.0%, JavaScript 1.5%, PLpgSQL 0.1%, Dockerfile 0.1%, PowerShell 0.1%.">
  <title>Composição média de linguagens por repositório público de Pcamargoz: Java 61.1%, HTML 17.3%, TypeScript 11.8%, CSS 8.0%, JavaScript 1.5%, PLpgSQL 0.1%, Dockerfile 0.1%, PowerShell 0.1%.</title>
  <defs>
    <linearGradient id="bg" x1="0" y1="0" x2="1" y2="1">
      <stop offset="0%" stop-color="#0D1117"/><stop offset="100%" stop-color="#161B22"/>
    </linearGradient>
    <linearGradient id="acc" x1="0" y1="0" x2="1" y2="0">
      <stop offset="0%" stop-color="#6DB33F"/><stop offset="100%" stop-color="#58A6FF"/>
    </linearGradient>
  </defs>
  <rect x="0.5" y="0.5" width="419" height="247" rx="12" fill="url(#bg)" stroke="#30363D"/>
  <path d="M12 1 H408 A11 11 0 0 1 419 12 V4 H1 V12 A11 11 0 0 1 12 1 Z" fill="url(#acc)"/>
  <rect x="1" y="1" width="418" height="4" fill="url(#acc)"/>
  <text x="26" y="42" font-family="'Segoe UI', Inter, Roboto, Helvetica, Arial, sans-serif" font-size="17" font-weight="700" fill="#6DB33F">Linguagens nos repositórios</text>
  <text x="26" y="62" font-family="ui-monospace, 'JetBrains Mono', 'Cascadia Mono', Menlo, Consolas, monospace" font-size="11" fill="#8B949E" letter-spacing="1.2">COMPOSIÇÃO MÉDIA POR REPOSITÓRIO</text>
    <rect x="26.00" y="82" width="224.72" height="9" fill="#b07219"/>
  <rect x="250.72" y="82" width="63.52" height="9" fill="#e34c26"/>
  <rect x="314.25" y="82" width="43.60" height="9" fill="#3178c6"/>
  <rect x="357.85" y="82" width="29.59" height="9" fill="#663399"/>
  <rect x="387.44" y="82" width="5.68" height="9" fill="#f1e05a"/>
  <rect x="393.12" y="82" width="1.50" height="9" fill="#336790"/>
  <rect x="394.62" y="82" width="1.50" height="9" fill="#384d54"/>
  <rect x="396.12" y="82" width="1.50" height="9" fill="#012456"/>
  <circle cx="31" cy="114" r="5" fill="#b07219"/>
  <text x="44" y="118" font-family="'Segoe UI', Inter, Roboto, Helvetica, Arial, sans-serif" font-size="12.5" fill="#E6EDF3">Java</text>
  <text x="198" y="118" text-anchor="end" font-family="ui-monospace, 'JetBrains Mono', 'Cascadia Mono', Menlo, Consolas, monospace" font-size="12" fill="#8B949E">61.1%</text>
  <circle cx="215" cy="114" r="5" fill="#e34c26"/>
  <text x="228" y="118" font-family="'Segoe UI', Inter, Roboto, Helvetica, Arial, sans-serif" font-size="12.5" fill="#E6EDF3">HTML</text>
  <text x="382" y="118" text-anchor="end" font-family="ui-monospace, 'JetBrains Mono', 'Cascadia Mono', Menlo, Consolas, monospace" font-size="12" fill="#8B949E">17.3%</text>
  <circle cx="31" cy="138" r="5" fill="#3178c6"/>
  <text x="44" y="142" font-family="'Segoe UI', Inter, Roboto, Helvetica, Arial, sans-serif" font-size="12.5" fill="#E6EDF3">TypeScript</text>
  <text x="198" y="142" text-anchor="end" font-family="ui-monospace, 'JetBrains Mono', 'Cascadia Mono', Menlo, Consolas, monospace" font-size="12" fill="#8B949E">11.8%</text>
  <circle cx="215" cy="138" r="5" fill="#663399"/>
  <text x="228" y="142" font-family="'Segoe UI', Inter, Roboto, Helvetica, Arial, sans-serif" font-size="12.5" fill="#E6EDF3">CSS</text>
  <text x="382" y="142" text-anchor="end" font-family="ui-monospace, 'JetBrains Mono', 'Cascadia Mono', Menlo, Consolas, monospace" font-size="12" fill="#8B949E">8.0%</text>
  <circle cx="31" cy="162" r="5" fill="#f1e05a"/>
  <text x="44" y="166" font-family="'Segoe UI', Inter, Roboto, Helvetica, Arial, sans-serif" font-size="12.5" fill="#E6EDF3">JavaScript</text>
  <text x="198" y="166" text-anchor="end" font-family="ui-monospace, 'JetBrains Mono', 'Cascadia Mono', Menlo, Consolas, monospace" font-size="12" fill="#8B949E">1.5%</text>
  <circle cx="215" cy="162" r="5" fill="#336790"/>
  <text x="228" y="166" font-family="'Segoe UI', Inter, Roboto, Helvetica, Arial, sans-serif" font-size="12.5" fill="#E6EDF3">PLpgSQL</text>
  <text x="382" y="166" text-anchor="end" font-family="ui-monospace, 'JetBrains Mono', 'Cascadia Mono', Menlo, Consolas, monospace" font-size="12" fill="#8B949E">0.1%</text>
  <circle cx="31" cy="186" r="5" fill="#384d54"/>
  <text x="44" y="190" font-family="'Segoe UI', Inter, Roboto, Helvetica, Arial, sans-serif" font-size="12.5" fill="#E6EDF3">Dockerfile</text>
  <text x="198" y="190" text-anchor="end" font-family="ui-monospace, 'JetBrains Mono', 'Cascadia Mono', Menlo, Consolas, monospace" font-size="12" fill="#8B949E">0.1%</text>
  <circle cx="215" cy="186" r="5" fill="#012456"/>
  <text x="228" y="190" font-family="'Segoe UI', Inter, Roboto, Helvetica, Arial, sans-serif" font-size="12.5" fill="#E6EDF3">PowerShell</text>
  <text x="382" y="190" text-anchor="end" font-family="ui-monospace, 'JetBrains Mono', 'Cascadia Mono', Menlo, Consolas, monospace" font-size="12" fill="#8B949E">0.1%</text>
  <rect x="26" y="218" width="368" height="1" fill="#21262D"/>
  <text x="26" y="236" font-family="'Segoe UI', Inter, Roboto, Helvetica, Arial, sans-serif" font-size="10.5" fill="#8B949E">Cada repositório pesa igual, para nenhum projeto isolado distorcer o resultado.</text>
</svg>
